<?xml version="1.0" encoding="UTF-8"?>
<svg id="Capa_2" data-name="Capa 2" xmlns="http://www.w3.org/2000/svg" viewBox="0 0 375.83 432.12">
  <defs>
    <style>
      .cls-1 {
        stroke-width: 2.08px;
      }

      .cls-1, .cls-2 {
        fill: none;
        stroke: #ff6e0b;
        stroke-miterlimit: 10;
      }

      .cls-2 {
        stroke-width: 1.37px;
      }

      .cls-3 {
        fill: #0c0;
      }

      .cls-3, .cls-4, .cls-5, .cls-6, .cls-7, .cls-8 {
        stroke-width: 0px;
      }

      .cls-4 {
        opacity: .3;
      }

      .cls-4, .cls-7 {
        fill: #f4ae00;
      }

      .cls-5 {
        fill: #0866ff;
      }

      .cls-6 {
        fill: red;
      }

      .cls-8 {
        fill: #fff;
      }
    </style>
  </defs>
  <g id="Capa_1-2" data-name="Capa 1">
    <g>
      <path class="cls-6" d="M108.35,284.75h-9.76v39.02h19.51v-9.76h9.76v-9.76h9.76v29.27h-68.29v-9.76h9.76v-78.04h-9.76v-9.76h68.29v29.27h-9.76v-9.76h-9.76v-9.76h-19.51v29.27h9.76v-9.76h9.76v29.27h-9.76v-9.76Z"/>
      <path class="cls-7" d="M153.77,265.24h19.51v9.76h9.76v9.76h9.76v-9.76h9.76v-9.76h19.51v9.76h-9.76v9.76h-9.76v29.27h9.76v9.76h9.76v9.76h-19.51v-9.76h-9.76v-9.76h-9.76v9.76h-9.76v9.76h-19.51v-9.76h9.76v-9.76h9.76v-29.27h-9.76v-9.76h-9.76v-9.76Z"/>
      <path class="cls-3" d="M267.48,265.24h29.27v9.76h9.76v48.78h-9.76v9.76h-29.27v19.51h9.76v9.76h-39.02v-9.76h9.76v-78.04h-9.76v-9.76h19.51v9.76h9.68l.08.08v48.7h19.51v-48.78h-19.51v-9.76Z"/>
    </g>
    <g>
      <rect class="cls-8" x="121.58" y="69.33" width="132.67" height="132.67"/>
      <path class="cls-5" d="M216.2,113.97v-15.61h-7.8v-7.8h-62.36v7.8h7.8v70.24h-7.8v7.8h62.36v-7.8h7.8v-15.61h7.8v-39.02h-7.8ZM200.59,152.99v7.8h-7.8v7.8h-23.33v-70.24h23.33v7.8h7.8v7.8h7.8v39.02h-7.8Z"/>
      <path class="cls-5" d="M121.58,69.33v132.67h132.67V69.33H121.58ZM129.38,77.13h109.26v109.26h-109.26v-109.26Z"/>
    </g>
    <path class="cls-4" d="M306.5,181.92h19.51v9.76h9.76v9.76h9.76v-9.76h9.76v-9.76h19.51v9.76h-9.76v9.76h-9.76v29.27h9.76v9.76h9.76v9.76h-19.51v-9.76h-9.76v-9.76h-9.76v9.76h-9.76v9.76h-19.51v-9.76h9.76v-9.76h9.76v-29.27h-9.76v-9.76h-9.76v-9.76Z"/>
    <path class="cls-4" d="M1.04,181.92h19.51v9.76h9.76v9.76h9.76v-9.76h9.76v-9.76h19.51v9.76h-9.76v9.76h-9.76v29.27h9.76v9.76h9.76v9.76h-19.51v-9.76h-9.76v-9.76h-9.76v9.76h-9.76v9.76H1.04v-9.76h9.76v-9.76h9.76v-29.27h-9.76v-9.76H1.04v-9.76Z"/>
    <path class="cls-4" d="M153.77,1.04h19.51v9.76h9.76v9.76h9.76v-9.76h9.76V1.04h19.51v9.76h-9.76v9.76h-9.76v29.27h9.76v9.76h9.76v9.76h-19.51v-9.76h-9.76v-9.76h-9.76v9.76h-9.76v9.76h-19.51v-9.76h9.76v-9.76h9.76v-29.27h-9.76v-9.76h-9.76V1.04Z"/>
    <path class="cls-4" d="M153.77,362.79h19.51v9.76h9.76v9.76h9.76v-9.76h9.76v-9.76h19.51v9.76h-9.76v9.76h-9.76v29.27h9.76v9.76h9.76v9.76h-19.51v-9.76h-9.76v-9.76h-9.76v9.76h-9.76v9.76h-19.51v-9.76h9.76v-9.76h9.76v-29.27h-9.76v-9.76h-9.76v-9.76Z"/>
    <path class="cls-4" d="M203.56,202v9.76h-9.75v9.76h-9.76v-9.76h-9.76v-9.76h-19.51v9.76h9.75v9.76h9.76v14.46h29.26v-14.46h9.76v-9.76h9.76v-9.76h-19.52Z"/>
    <rect class="cls-2" x="69.33" y="69.33" width="237.17" height="293.47"/>
    <rect class="cls-1" x="1.04" y="1.04" width="373.75" height="430.04"/>
    <line class="cls-2" x1="69.33" y1="202" x2="306.5" y2="202"/>
    <line class="cls-2" x1="69.33" y1="235.98" x2="306.5" y2="235.98"/>
  </g>
</svg>