<?xml version="1.0" encoding="UTF-8"?>
<svg id="Capa_2" data-name="Capa 2" xmlns="http://www.w3.org/2000/svg" viewBox="0 0 537.85 270.76">
  <defs>
    <style>
      .cls-1 {
        fill: #0c0;
      }

      .cls-1, .cls-2, .cls-3, .cls-4, .cls-5, .cls-6 {
        stroke-width: 0px;
      }

      .cls-7 {
        fill: none;
        stroke: #ff6e0b;
        stroke-miterlimit: 10;
        stroke-width: 1.51px;
      }

      .cls-2 {
        opacity: .3;
      }

      .cls-2, .cls-5 {
        fill: #f4ae00;
      }

      .cls-3 {
        fill: #0866ff;
      }

      .cls-4 {
        fill: red;
      }

      .cls-6 {
        fill: #fff;
      }
    </style>
  </defs>
  <g id="Capa_1-2" data-name="Capa 1">
    <path class="cls-2" d="M331.86,122.55v-8.55h-8.55v-8.54h-17.1v8.54h8.55v8.55h8.55v25.65h-8.55v8.54h-8.55v8.55h17.1v-8.55h8.55v-8.54h4.27v-25.65h-4.27Z"/>
    <path class="cls-2" d="M221.77.76h19.51v9.76h9.76v9.76h9.76v-9.76h9.76V.76h19.51v9.76h-9.76v9.76h-9.76v29.27h9.76v9.76h9.76v9.76h-19.51v-9.76h-9.76v-9.76h-9.76v9.76h-9.76v9.76h-19.51v-9.76h9.76v-9.76h9.76v-29.27h-9.76v-9.76h-9.76V.76Z"/>
    <path class="cls-2" d="M.76,97.33h19.51v9.76h9.76v9.76h9.76v-9.76h9.76v-9.76h19.51v9.76h-9.76v9.76h-9.76v29.27h9.76v9.76h9.76v9.76h-19.51v-9.76h-9.76v-9.76h-9.76v9.76h-9.76v9.76H.76v-9.76h9.76v-9.76h9.76v-29.27h-9.76v-9.76H.76v-9.76Z"/>
    <path class="cls-2" d="M468.81,97.33h19.51v9.76h9.76v9.76h9.76v-9.76h9.76v-9.76h19.51v9.76h-9.76v9.76h-9.76v29.27h9.76v9.76h9.76v9.76h-19.51v-9.76h-9.76v-9.76h-9.76v9.76h-9.76v9.76h-19.51v-9.76h9.76v-9.76h9.76v-29.27h-9.76v-9.76h-9.76v-9.76Z"/>
    <path class="cls-2" d="M221.77,201.71h19.51v9.76h9.76v9.76h9.76v-9.76h9.76v-9.76h19.51v9.76h-9.76v9.76h-9.76v29.27h9.76v9.76h9.76v9.76h-19.51v-9.76h-9.76v-9.76h-9.76v9.76h-9.76v9.76h-19.51v-9.76h9.76v-9.76h9.76v-29.27h-9.76v-9.76h-9.76v-9.76Z"/>
  </g>
  <g id="reticula">
    <g>
      <path class="cls-4" d="M108.06,120.74h-9.76v39.02h19.51v-9.76h9.76v-9.76h9.76v29.27h-68.29v-9.76h9.76v-78.04h-9.76v-9.76h68.29v29.27h-9.76v-9.76h-9.76v-9.76h-19.51v29.27h9.76v-9.76h9.76v29.27h-9.76v-9.76Z"/>
      <polygon class="cls-5" points="212.02 120.74 212.02 110.99 221.77 110.99 221.77 101.23 202.26 101.23 202.26 110.99 192.51 110.99 192.51 120.74 182.75 120.74 182.75 110.99 173 110.99 173 101.23 153.48 101.23 153.48 110.99 163.24 110.99 163.24 120.74 173 120.74 173 150.01 163.24 150.01 163.24 159.76 153.48 159.76 153.48 169.52 173 169.52 173 159.76 182.75 159.76 182.75 150.01 192.51 150.01 192.51 159.76 202.26 159.76 202.26 169.52 221.77 169.52 221.77 159.76 212.02 159.76 212.02 150.01 202.26 150.01 202.26 120.74 212.02 120.74"/>
      <path class="cls-1" d="M267.19,101.23h29.27v9.76h9.76v48.78h-9.76v9.76h-29.27v19.51h9.76v9.76h-39.02v-9.76h9.76v-78.04h-9.76v-9.76h19.51v9.76h9.68l.08.08v48.7h19.51v-48.78h-19.51v-9.76Z"/>
    </g>
    <g>
      <rect class="cls-6" x="336.13" y="69.04" width="132.67" height="132.67"/>
      <path class="cls-3" d="M430.76,113.68v-15.61h-7.8v-7.8h-62.36v7.8h7.8v70.23h-7.8v7.8h62.36v-7.8h7.8v-15.61h7.8v-39.01h-7.8ZM422.96,152.7h-7.8v7.8h-7.8v7.8h-23.33v-70.23h23.33v7.8h7.8v7.8h7.8v39.01Z"/>
      <path class="cls-3" d="M336.13,69.04v132.67h132.67V69.04h-132.67ZM453.2,186.11h-109.26v-109.26h109.26v109.26Z"/>
    </g>
    <rect class="cls-7" x="69.04" y="69.04" width="399.76" height="132.67"/>
    <rect class="cls-7" x=".76" y=".76" width="536.34" height="269.25"/>
  </g>
</svg>