<?xml version="1.0" encoding="UTF-8"?>
<svg id="Capa_2" data-name="Capa 2" xmlns="http://www.w3.org/2000/svg" viewBox="0 0 1078.54 319.62">
  <defs>
    <style>
      .cls-1 {
        fill: #ff6e0b;
      }

      .cls-1, .cls-2, .cls-3, .cls-4, .cls-5, .cls-6, .cls-7, .cls-8 {
        stroke-width: 0px;
      }

      .cls-2 {
        fill: #000;
      }

      .cls-3 {
        fill: #0c0;
      }

      .cls-4 {
        fill: #0866ff;
      }

      .cls-5 {
        fill: red;
      }

      .cls-6 {
        fill: #f4ae00;
      }

      .cls-7 {
        fill: #fff;
      }

      .cls-8 {
        fill: #006eff;
      }

      .cls-9 {
        opacity: .3;
      }
    </style>
  </defs>
  <g id="Capa_1-2" data-name="Capa 1">
    <g>
      <rect class="cls-7" x="901.7" y="142.78" width="116.25" height="116.25"/>
      <g>
        <path class="cls-4" d="M984.61,180.39v-13.68h-6.84v-6.84h-54.64v6.84h6.84v61.54h-6.84v6.84h54.64v-6.84h6.84v-13.68h6.84v-34.19h-6.84ZM977.77,214.58h-6.84v6.84h-6.84v6.84h-20.45v-61.54h20.45v6.84h6.84v6.84h6.84v34.19Z"/>
        <path class="cls-4" d="M901.7,142.78v116.25h116.25v-116.25h-116.25ZM1004.27,245.35h-95.74v-95.74h95.74v95.74Z"/>
      </g>
      <g>
        <path class="cls-5" d="M97.5,188.08h-8.55v34.19h17.1v-8.55h8.55v-8.55h8.55v25.64h-59.84v-8.55h8.55v-68.38h-8.55v-8.55h59.84v25.64h-8.55v-8.55h-8.55v-8.55h-17.1v25.64h8.55v-8.55h8.55v25.64h-8.55v-8.55Z"/>
        <path class="cls-6" d="M137.3,170.99h17.1v8.55h8.55v8.55h8.55v-8.55h8.55v-8.55h17.1v8.55h-8.55v8.55h-8.55v25.64h8.55v8.55h8.55v8.55h-17.1v-8.55h-8.55v-8.55h-8.55v8.55h-8.55v8.55h-17.1v-8.55h8.55v-8.55h8.55v-25.64h-8.55v-8.55h-8.55v-8.55Z"/>
        <path class="cls-3" d="M236.94,170.99h25.64v8.55h8.55v42.74h-8.55v8.55h-25.64v17.1h8.55v8.55h-34.19v-8.55h8.55v-68.38h-8.55v-8.55h17.1v8.55h8.48l.07.07v42.67h17.1v-42.74h-17.1v-8.55Z"/>
        <path class="cls-4" d="M293.83,170.99h42.74v8.55h8.55v17.1h-42.74v25.64h25.64v-8.55h17.1v8.55h-8.55v8.55h-42.74v-8.55h-8.55v-42.74h8.55v-8.55ZM302.38,188.08h25.64v-8.55h-25.64v8.55Z"/>
        <path class="cls-4" d="M393.47,188.08h-8.55v34.19h8.55v8.55h-34.19v-8.55h8.55v-42.74h-8.55v-8.55h17.1v8.55h8.55v-8.55h25.64v8.55h8.55v17.1h-17.1v-17.1h-8.55v8.55Z"/>
        <path class="cls-4" d="M433.64,170.99h25.64v51.29h8.55v8.55h-34.19v-8.55h8.55v-42.74h-8.55v-8.55ZM442.18,145.34h17.1v17.1h-17.1v-17.1Z"/>
        <path class="cls-4" d="M598.51,170.98h42.74v8.55h8.55v17.1h-42.74v25.64h25.64v-8.55h17.1v8.55h-8.55v8.55h-42.74v-8.55h-8.55v-42.74h8.55v-8.55ZM607.06,188.08h25.64v-8.55h-25.64v8.55Z"/>
        <path class="cls-4" d="M672.51,179.53h-8.55v-8.55h17.1v8.55h8.55v51.29h-17.1v-51.29ZM689.6,170.98h25.64v8.55h8.55v51.29h-17.1v-51.29h-17.1v-8.55Z"/>
        <path class="cls-4" d="M737.95,170.98h17.1v-17.1h8.55v-8.55h8.55v25.64h17.1v8.55h-17.1v42.74h8.55v-8.55h17.1v8.55h-8.55v8.55h-25.64v-8.55h-8.55v-42.74h-17.1v-8.55Z"/>
        <path class="cls-4" d="M820.49,222.27h-8.55v-42.74h8.55v-8.55h42.74v8.55h8.55v42.74h-8.55v8.55h-42.74v-8.55ZM854.68,179.53h-25.64v42.74h25.64v-42.74Z"/>
        <g>
          <polygon class="cls-8" points="533.19 179.55 541.7 179.55 541.7 230.8 524.69 230.8 524.69 179.55 507.72 179.55 507.72 230.8 490.73 230.8 490.73 179.55 482.26 179.55 482.26 171.01 499.27 171.01 499.27 179.55 507.65 179.55 507.65 171.01 533.19 171.01 533.19 179.55"/>
          <polygon class="cls-8" points="575.72 179.55 575.72 230.8 558.72 230.8 558.72 179.55 541.71 179.55 541.71 171.01 558.79 171.01 558.79 179.55 575.72 179.55"/>
        </g>
      </g>
    </g>
    <rect class="cls-1" x="871.28" y="142.78" width="1" height="116.25"/>
    <rect class="cls-1" x="901.2" y="142.78" width="1" height="116.25"/>
    <g class="cls-9">
      <path class="cls-6" d="M510.71,259.03h17.1v8.55h8.55v8.55h8.55v-8.55h8.55v-8.55h17.1v8.55h-8.55v8.55h-8.55v25.64h8.55v8.55h8.55v8.55h-17.1v-8.55h-8.55v-8.55h-8.55v8.55h-8.55v8.55h-17.1v-8.55h8.55v-8.55h8.55v-25.64h-8.55v-8.55h-8.55v-8.55Z"/>
    </g>
    <path class="cls-6" d="M82.04,0h12.74v6.37h6.37v6.37h6.37v-6.37h6.37V0h12.74v6.37h-6.37v6.37h-6.37v19.11h6.37v6.37h6.37v6.37h-12.74v-6.37h-6.37v-6.37h-6.37v6.37h-6.37v6.37h-12.74v-6.37h6.37v-6.37h6.37V12.74h-6.37v-6.37h-6.37V0Z"/>
    <g class="cls-9">
      <path class="cls-6" d="M510.71,82.94h17.1v8.55h8.55v8.55h8.55v-8.55h8.55v-8.55h17.1v8.55h-8.55v8.55h-8.55v25.64h8.55v8.55h8.55v8.55h-17.1v-8.55h-8.55v-8.55h-8.55v8.55h-8.55v8.55h-17.1v-8.55h8.55v-8.55h8.55v-25.64h-8.55v-8.55h-8.55v-8.55Z"/>
    </g>
    <g class="cls-9">
      <path class="cls-6" d="M1017.95,170.5h17.1v8.55h8.55v8.55h8.55v-8.55h8.55v-8.55h17.1v8.55h-8.55v8.55h-8.55v25.64h8.55v8.55h8.55v8.55h-17.1v-8.55h-8.55v-8.55h-8.55v8.55h-8.55v8.55h-17.1v-8.55h8.55v-8.55h8.55v-25.64h-8.55v-8.55h-8.55v-8.55Z"/>
    </g>
    <g class="cls-9">
      <path class="cls-6" d="M3.47,170.5h17.1v8.55h8.55v8.55h8.55v-8.55h8.55v-8.55h17.1v8.55h-8.55v8.55h-8.55v25.64h8.55v8.55h8.55v8.55h-17.1v-8.55h-8.55v-8.55h-8.55v8.55h-8.55v8.55H3.47v-8.55h8.55v-8.55h8.55v-25.64h-8.55v-8.55H3.47v-8.55Z"/>
    </g>
    <g class="cls-9">
      <path class="cls-6" d="M897.42,187.59v-8.55h-8.55v-8.54h-17.1v8.54h8.55v8.55h8.55v25.65h-8.55v8.54h-8.55v8.55h17.1v-8.55h8.55v-8.54h4.27v-25.65h-4.27Z"/>
    </g>
  </g>
  <g id="reticula">
    <path class="cls-1" d="M1018.45,259.53H62.81v-117.25h955.64v117.25ZM63.81,258.53h953.64v-115.25H63.81v115.25Z"/>
    <path class="cls-1" d="M1078.54,319.62H2.72V82.19h1075.82v237.44ZM4.23,318.11h1072.8V83.7H4.23v234.41Z"/>
    <g>
      <path class="cls-2" d="M4.26,19.52h-2.13v-4.26H0v-4.26h4.26v4.26h2.13v2.13h2.13v-2.13h2.13v-4.26h4.26v4.26h-2.13v4.26h-2.13v4.26h2.13v4.26h2.13v4.26h-4.26v-4.26h-2.13v-2.13h-2.13v2.13h-2.13v4.26H0v-4.26h2.13v-4.26h2.13v-4.26Z"/>
      <path class="cls-2" d="M40.45,17.39h12.77v2.13h-12.77v-2.13ZM40.45,23.77h12.77v2.13h-12.77v-2.13Z"/>
    </g>
  </g>
</svg>