<?xml version="1.0" encoding="UTF-8"?>
<svg xmlns="http://www.w3.org/2000/svg" viewBox="0 0 1374.3 260">
  <defs>
    <style>
      .cls-1 {
        fill: #0c0;
      }

      .cls-1, .cls-2, .cls-3, .cls-4, .cls-5 {
        stroke-width: 0px;
      }

      .cls-2 {
        fill: #0866ff;
      }

      .cls-3 {
        fill: red;
      }

      .cls-4 {
        fill: #f4ae00;
      }

      .cls-5 {
        fill: #fff;
      }
    </style>
  </defs>
  <g id="E">
    <g id="E-2" data-name="E">
      <path class="cls-3" d="M50,118.9h-12.5v50h25v-12.5h12.5v-12.5h12.5v37.5H0v-12.5h12.5v-100H0v-12.5h87.5v37.5h-12.5v-12.5h-12.5v-12.5h-25v37.5h12.5v-12.5h12.5v37.5h-12.5v-12.5Z"/>
    </g>
  </g>
  <g id="x">
    <g id="x-2" data-name="x">
      <path class="cls-4" d="M108.2,93.9h25v12.5h12.5v12.5h12.5v-12.5h12.5v-12.5h25v12.5h-12.5v12.5h-12.5v37.5h12.5v12.5h12.5v12.5h-25v-12.5h-12.5v-12.5h-12.5v12.5h-12.5v12.5h-25v-12.5h12.5v-12.5h12.5v-37.5h-12.5v-12.5h-12.5v-12.5Z"/>
    </g>
  </g>
  <g id="p">
    <g id="p-2" data-name="p">
      <path class="cls-1" d="M253.9,93.9h37.5v12.5h12.5v62.5h-12.5v12.5h-37.5v25h12.5v12.5h-50v-12.5h12.5v-100h-12.5v-12.5h25v12.5h12.5v62.5h25v-62.5h-25v-12.5Z"/>
    </g>
  </g>
  <g id="e1">
    <g id="e1-2" data-name="e1">
      <path class="cls-2" d="M337.1,93.9h62.5v12.5h12.5v25h-62.5v37.5h37.5v-12.5h25v12.5h-12.5v12.5h-62.5v-12.5h-12.5v-62.5h12.5v-12.5ZM349.6,118.9h37.5v-12.5h-37.5v12.5Z"/>
    </g>
  </g>
  <g id="r">
    <g id="r-2" data-name="r">
      <path class="cls-2" d="M482.8,118.9h-12.5v50h12.5v12.5h-50v-12.5h12.5v-62.5h-12.5v-12.5h25v12.5h12.5v-12.5h37.5v12.5h12.5v25h-25v-25h-12.5v12.5Z"/>
    </g>
  </g>
  <g id="i">
    <g id="i-2" data-name="i">
      <path class="cls-2" d="M542.2,93.9h37.5v75h12.5v12.5h-50v-12.5h12.5v-62.5h-12.5v-12.5ZM554.7,56.4h25v25h-25v-25Z"/>
    </g>
  </g>
  <g id="m">
    <g id="m-2" data-name="m">
      <path class="cls-2" d="M678.4,118.9h-12.5v50h-12.5v-50h-12.5v62.5h-25v-87.5h37.5v12.5h12.5v-12.5h25v12.5h12.5v75h-25v-62.5Z"/>
    </g>
  </g>
  <g id="e2">
    <g id="e2-2" data-name="e2">
      <path class="cls-2" d="M736.7,93.9h62.5v12.5h12.5v25h-62.5v37.5h37.5v-12.5h25v12.5h-12.5v12.5h-62.5v-12.5h-12.5v-62.5h12.5v-12.5ZM749.2,118.9h37.5v-12.5h-37.5v12.5Z"/>
    </g>
  </g>
  <g id="n">
    <g id="n-2" data-name="n">
      <path class="cls-2" d="M844.9,106.4h-12.5v-12.5h25v12.5h12.5v75h-25v-75ZM869.9,93.9h37.5v12.5h12.5v75h-25v-75h-25v-12.5Z"/>
    </g>
  </g>
  <g id="t">
    <g id="t-2" data-name="t">
      <path class="cls-2" d="M940.6,93.9h25v-25h12.5v-12.5h12.5v37.5h25v12.5h-25v62.5h12.5v-12.5h25v12.5h-12.5v12.5h-37.5v-12.5h-12.5v-62.5h-25v-12.5Z"/>
    </g>
  </g>
  <g id="o">
    <g id="o-2" data-name="o">
      <path class="cls-2" d="M1061.3,168.9h-12.5v-62.5h12.5v-12.5h62.5v12.5h12.5v62.5h-12.5v12.5h-62.5v-12.5ZM1111.3,106.4h-37.5v62.5h37.5v-62.5Z"/>
    </g>
  </g>
  <g id="D">
    <g>
      <rect class="cls-5" x="1177" y="52.6" width="170" height="170"/>
      <g id="isotipo">
        <g>
          <path class="cls-2" d="M1298.2,109.8v-20h-10v-10h-79.9v10h10v90h-10v10h79.9v-10h10v-20h10v-50h-10ZM1278.2,159.8v10h-10v10h-29.9v-90h29.9v10h10v10h10v50h-10Z"/>
          <path class="cls-2" d="M1177,52.6v170h170V52.6h-170ZM1327,202.6h-140V62.6h140v140Z"/>
        </g>
      </g>
    </g>
  </g>
  <g id="efecto">
    <g id="efecto-2" data-name="efecto">
      <g>
        <g id="Capa_20_-efecto" data-name="Capa 20 -efecto">
          <g>
            <rect class="cls-4" x="1154.3" y="40" width="10" height="10"/>
            <rect class="cls-4" x="1144.3" y="30" width="10" height="10"/>
            <rect class="cls-4" x="1134.3" y="20" width="10" height="10"/>
          </g>
        </g>
        <g id="Capa_13_-efecto" data-name="Capa 13 -efecto">
          <g>
            <rect class="cls-1" x="1154.3" y="230" width="10" height="10"/>
            <rect class="cls-1" x="1154.3" y="240" width="10" height="10"/>
            <rect class="cls-1" x="1154.3" y="250" width="10" height="10"/>
            <rect class="cls-1" x="1144.3" y="240" width="10" height="10"/>
            <rect class="cls-1" x="1164.3" y="240" width="10" height="10"/>
          </g>
        </g>
        <g id="Capa_14_-efecto" data-name="Capa 14 -efecto">
          <rect class="cls-3" x="1214.3" y="230" width="10" height="10"/>
        </g>
        <g id="Capa_15_-efecto" data-name="Capa 15 -efecto">
          <g>
            <rect class="cls-1" x="1354.3" y="240" width="10" height="10"/>
            <rect class="cls-1" x="1364.3" y="250" width="10" height="10"/>
          </g>
        </g>
        <g id="Capa_16_-efecto" data-name="Capa 16 -efecto">
          <g>
            <rect class="cls-4" x="1354.3" y="140" width="10" height="10"/>
            <rect class="cls-4" x="1364.3" y="140" width="10" height="10"/>
          </g>
        </g>
        <g id="Capa_17_-efecto" data-name="Capa 17 -efecto">
          <g>
            <rect class="cls-1" x="1344.3" y="30" width="10" height="10"/>
            <rect class="cls-1" x="1354.3" y="20" width="10" height="10"/>
          </g>
        </g>
        <g id="Capa_18_-efecto" data-name="Capa 18 -efecto">
          <g>
            <rect class="cls-3" x="1264.3" y="30" width="10" height="10"/>
            <rect class="cls-3" x="1264.3" y="20" width="10" height="10"/>
            <rect class="cls-3" x="1264.3" y="10" width="10" height="10"/>
            <rect class="cls-3" x="1254.3" y="20" width="10" height="10"/>
            <rect class="cls-3" x="1274.3" y="20" width="10" height="10"/>
          </g>
        </g>
        <g id="Capa_19_-efecto_" data-name="Capa 19 -efecto ">
          <rect class="cls-1" x="1244.3" width="10" height="10"/>
        </g>
      </g>
    </g>
  </g>
</svg>