<?xml version="1.0" encoding="UTF-8"?>
<svg xmlns="http://www.w3.org/2000/svg" version="1.1" viewBox="0 0 1788.6 600">
  <defs>
    <style>
      .cls-1 {
        fill: #0c0;
      }

      .cls-1, .cls-2, .cls-3, .cls-4 {
        stroke-width: 0px;
      }

      .cls-2 {
        fill: #0866ff;
      }

      .cls-3 {
        fill: red;
      }

      .cls-4 {
        fill: #f4ae00;
      }
    </style>
  </defs>
  <g id="E">
    <path class="cls-3" d="M270.8,281.3h-12.5v50h25v-12.5h12.5v-12.5h12.5v37.5h-87.5v-12.5h12.5v-100h-12.5v-12.5h87.5v37.5h-12.5v-12.5h-12.5v-12.5h-25v37.5h12.5v-12.5h12.5v37.5h-12.5v-12.5Z"/>
  </g>
  <g id="x">
    <path class="cls-4" d="M329,256.3h25v12.5h12.5v12.5h12.5v-12.5h12.5v-12.5h25v12.5h-12.5v12.5h-12.5v37.5h12.5v12.5h12.5v12.5h-25v-12.5h-12.5v-12.5h-12.5v12.5h-12.5v12.5h-25v-12.5h12.5v-12.5h12.5v-37.5h-12.5v-12.5h-12.5v-12.5Z"/>
  </g>
  <g id="p">
    <path class="cls-1" d="M474.7,256.3h37.5v12.5h12.5v62.5h-12.5v12.5h-37.5v25h12.5v12.5h-50v-12.5h12.5v-100h-12.5v-12.5h25v12.5h12.5v62.5h25v-62.5h-25v-12.5Z"/>
  </g>
  <g id="e1">
    <path class="cls-2" d="M557.9,256.3h62.5v12.5h12.5v25h-62.5v37.5h37.5v-12.5h25v12.5h-12.5v12.5h-62.5v-12.5h-12.5v-62.5h12.5v-12.5ZM570.4,281.3h37.5v-12.5h-37.5v12.5Z"/>
  </g>
  <g id="r">
    <path class="cls-2" d="M703.6,281.3h-12.5v50h12.5v12.5h-50v-12.5h12.5v-62.5h-12.5v-12.5h25v12.5h12.5v-12.5h37.5v12.5h12.5v25h-25v-25h-12.5v12.5Z"/>
  </g>
  <g id="i">
    <path class="cls-2" d="M763,256.3h37.5v75h12.5v12.5h-50v-12.5h12.5v-62.5h-12.5v-12.5ZM775.5,218.8h25v25h-25v-25Z"/>
  </g>
  <g id="m">
    <path class="cls-2" d="M899.2,281.3h-12.5v50h-12.5v-50h-12.5v62.5h-25v-87.5h37.5v12.5h12.5v-12.5h25v12.5h12.5v75h-25v-62.5Z"/>
  </g>
  <g id="e2">
    <path class="cls-2" d="M957.5,256.3h62.5v12.5h12.5v25h-62.5v37.5h37.5v-12.5h25v12.5h-12.5v12.5h-62.5v-12.5h-12.5v-62.5h12.5v-12.5ZM970,281.3h37.5v-12.5h-37.5v12.5Z"/>
  </g>
  <g id="n">
    <path class="cls-2" d="M1065.7,268.8h-12.5v-12.5h25v12.5h12.5v75h-25v-75ZM1090.7,256.3h37.5v12.5h12.5v75h-25v-75h-25v-12.5Z"/>
  </g>
  <g id="t">
    <path class="cls-2" d="M1161.4,256.3h25v-25h12.5v-12.5h12.5v37.5h25v12.5h-25v62.5h12.5v-12.5h25v12.5h-12.5v12.5h-37.5v-12.5h-12.5v-62.5h-25v-12.5Z"/>
  </g>
  <g id="o">
    <path class="cls-2" d="M1282.1,331.3h-12.5v-62.5h12.5v-12.5h62.5v12.5h12.5v62.5h-12.5v12.5h-62.5v-12.5ZM1332.1,268.8h-37.5v62.5h37.5v-62.5Z"/>
  </g>
  <g id="isotipo">
    <g>
      <path class="cls-2" d="M1519,272.2v-20h-10v-10h-79.9v10h10v90h-10v10h79.9v-10h10v-20h10v-50h-10ZM1499,322.2v10h-10v10h-29.9v-90h29.9v10h10v10h10v50h-10Z"/>
      <path class="cls-2" d="M1397.8,215v170h170v-170h-170ZM1547.8,365h-140v-140h140v140Z"/>
    </g>
  </g>
  <g id="efecto">
    <g>
      <g id="Capa_20_-efecto" data-name="Capa 20 -efecto">
        <g>
          <rect class="cls-4" x="1375.1" y="202.4" width="10" height="10"/>
          <rect class="cls-4" x="1365.1" y="192.4" width="10" height="10"/>
          <rect class="cls-4" x="1355.1" y="182.4" width="10" height="10"/>
        </g>
      </g>
      <g id="Capa_13_-efecto" data-name="Capa 13 -efecto">
        <g>
          <rect class="cls-1" x="1375.1" y="392.4" width="10" height="10"/>
          <rect class="cls-1" x="1375.1" y="402.4" width="10" height="10"/>
          <rect class="cls-1" x="1375.1" y="412.4" width="10" height="10"/>
          <rect class="cls-1" x="1365.1" y="402.4" width="10" height="10"/>
          <rect class="cls-1" x="1385.1" y="402.4" width="10" height="10"/>
        </g>
      </g>
      <g id="Capa_14_-efecto" data-name="Capa 14 -efecto">
        <rect class="cls-3" x="1435.1" y="392.4" width="10" height="10"/>
      </g>
      <g id="Capa_15_-efecto" data-name="Capa 15 -efecto">
        <g>
          <rect class="cls-1" x="1575.1" y="402.4" width="10" height="10"/>
          <rect class="cls-1" x="1585.1" y="412.4" width="10" height="10"/>
        </g>
      </g>
      <g id="Capa_16_-efecto" data-name="Capa 16 -efecto">
        <g>
          <rect class="cls-4" x="1575.1" y="302.4" width="10" height="10"/>
          <rect class="cls-4" x="1585.1" y="302.4" width="10" height="10"/>
        </g>
      </g>
      <g id="Capa_17_-efecto" data-name="Capa 17 -efecto">
        <g>
          <rect class="cls-1" x="1565.1" y="192.4" width="10" height="10"/>
          <rect class="cls-1" x="1575.1" y="182.4" width="10" height="10"/>
        </g>
      </g>
      <g id="Capa_18_-efecto" data-name="Capa 18 -efecto">
        <g>
          <rect class="cls-3" x="1485.1" y="192.4" width="10" height="10"/>
          <rect class="cls-3" x="1485.1" y="182.4" width="10" height="10"/>
          <rect class="cls-3" x="1485.1" y="172.4" width="10" height="10"/>
          <rect class="cls-3" x="1475.1" y="182.4" width="10" height="10"/>
          <rect class="cls-3" x="1495.1" y="182.4" width="10" height="10"/>
        </g>
      </g>
      <g id="Capa_19_-efecto_" data-name="Capa 19 -efecto ">
        <rect class="cls-1" x="1465.1" y="162.4" width="10" height="10"/>
      </g>
    </g>
  </g>
</svg>