<?xml version="1.0" encoding="UTF-8"?>
<svg id="Capa_2" data-name="Capa 2" xmlns="http://www.w3.org/2000/svg" viewBox="0 0 954.64 116.25">
  <defs>
    <style>
      .cls-1 {
        fill: #0c0;
      }

      .cls-1, .cls-2, .cls-3, .cls-4, .cls-5, .cls-6 {
        stroke-width: 0px;
      }

      .cls-2 {
        fill: #0866ff;
      }

      .cls-3 {
        fill: red;
      }

      .cls-4 {
        fill: #f4ae00;
      }

      .cls-5 {
        fill: #fff;
      }

      .cls-6 {
        fill: #006eff;
      }
    </style>
  </defs>
  <g id="Capa_1-2" data-name="Capa 1">
    <g>
      <rect class="cls-5" x="838.39" width="116.25" height="116.25"/>
      <g>
        <path class="cls-2" d="M921.3,37.61v-13.68h-6.84v-6.84h-54.64v6.84h6.84v61.54h-6.84v6.84h54.64v-6.84h6.84v-13.68h6.84v-34.19h-6.84ZM914.46,71.8h-6.84v6.84h-6.84v6.84h-20.45V23.94h20.45v6.84h6.84v6.84h6.84v34.19Z"/>
        <path class="cls-2" d="M838.39,0v116.25h116.25V0h-116.25ZM940.96,102.58h-95.74V6.84h95.74v95.74Z"/>
      </g>
      <g>
        <path class="cls-3" d="M34.19,45.31h-8.55v34.19h17.1v-8.55h8.55v-8.55h8.55v25.64H0v-8.55h8.55V11.11H0V2.57h59.84v25.64h-8.55v-8.55h-8.55v-8.55h-17.1v25.64h8.55v-8.55h8.55v25.64h-8.55v-8.55Z"/>
        <path class="cls-4" d="M73.99,28.21h17.1v8.55h8.55v8.55h8.55v-8.55h8.55v-8.55h17.1v8.55h-8.55v8.55h-8.55v25.64h8.55v8.55h8.55v8.55h-17.1v-8.55h-8.55v-8.55h-8.55v8.55h-8.55v8.55h-17.1v-8.55h8.55v-8.55h8.55v-25.64h-8.55v-8.55h-8.55v-8.55Z"/>
        <path class="cls-1" d="M173.63,28.21h25.64v8.55h8.55v42.74h-8.55v8.55h-25.64v17.1h8.55v8.55h-34.19v-8.55h8.55V36.76h-8.55v-8.55h17.1v8.55h8.48l.07.07v42.67h17.1v-42.74h-17.1v-8.55Z"/>
        <path class="cls-2" d="M230.52,28.21h42.74v8.55h8.55v17.1h-42.74v25.64h25.64v-8.55h17.1v8.55h-8.55v8.55h-42.74v-8.55h-8.55v-42.74h8.55v-8.55ZM239.07,45.31h25.64v-8.55h-25.64v8.55Z"/>
        <path class="cls-2" d="M330.16,45.31h-8.55v34.19h8.55v8.55h-34.19v-8.55h8.55v-42.74h-8.55v-8.55h17.1v8.55h8.55v-8.55h25.64v8.55h8.55v17.1h-17.1v-17.1h-8.55v8.55Z"/>
        <path class="cls-2" d="M370.33,28.21h25.64v51.29h8.55v8.55h-34.19v-8.55h8.55v-42.74h-8.55v-8.55ZM378.87,2.57h17.1v17.1h-17.1V2.57Z"/>
        <path class="cls-2" d="M535.2,28.21h42.74v8.55h8.55v17.1h-42.74v25.64h25.64v-8.55h17.1v8.55h-8.55v8.55h-42.74v-8.55h-8.55v-42.74h8.55v-8.55ZM543.75,45.3h25.64v-8.55h-25.64v8.55Z"/>
        <path class="cls-2" d="M609.2,36.75h-8.55v-8.55h17.1v8.55h8.55v51.29h-17.1v-51.29ZM626.29,28.21h25.64v8.55h8.55v51.29h-17.1v-51.29h-17.1v-8.55Z"/>
        <path class="cls-2" d="M674.64,28.21h17.1V11.11h8.55V2.56h8.55v25.64h17.1v8.55h-17.1v42.74h8.55v-8.55h17.1v8.55h-8.55v8.55h-25.64v-8.55h-8.55v-42.74h-17.1v-8.55Z"/>
        <path class="cls-2" d="M757.18,79.49h-8.55v-42.74h8.55v-8.55h42.74v8.55h8.55v42.74h-8.55v8.55h-42.74v-8.55ZM791.37,36.75h-25.64v42.74h25.64v-42.74Z"/>
        <g>
          <polygon class="cls-6" points="469.88 36.78 478.39 36.78 478.39 88.02 461.38 88.02 461.38 36.78 444.41 36.78 444.41 88.02 427.42 88.02 427.42 36.78 418.95 36.78 418.95 28.23 435.96 28.23 435.96 36.78 444.34 36.78 444.34 28.23 469.88 28.23 469.88 36.78"/>
          <polygon class="cls-6" points="512.41 36.78 512.41 88.02 495.41 88.02 495.41 36.78 478.4 36.78 478.4 28.23 495.48 28.23 495.48 36.78 512.41 36.78"/>
        </g>
      </g>
    </g>
  </g>
</svg>